<?xml version="1.0" encoding="UTF-8"?>
<svg id="Capa_1" data-name="Capa 1" xmlns="http://www.w3.org/2000/svg" viewBox="0 0 16.42 19.05">
  <g id="SVGRepo_iconCarrier" data-name="SVGRepo iconCarrier">
    <path d="m1,4.41c0-1.19,0-1.79.17-2.25.15-.4.4-.73.7-.93.34-.23.79-.23,1.69-.23h9.3c.9,0,1.35,0,1.69.23.3.2.55.53.7.93.17.46.17,1.05.17,2.25v13.64l-2.66-1.77c-.2-.13-.3-.2-.41-.25-.09-.04-.19-.07-.29-.09-.11-.02-.22-.02-.45-.02l-8.09-.15c-.9,0-1.19.14-1.53-.1-.3-.2-.66-.52-.82-.92-.17-.46-.17-1.05-.17-2.25,0,0,0-8.09,0-8.09Z" style="fill: #3e89cc; stroke: #3e89cc; stroke-linecap: round; stroke-linejoin: round; stroke-width: 2px;"/>
  </g>
</svg>